<?xml version="1.0" encoding="utf-8"?>
<svg id="Layer_1" version="1.1" viewBox="0 0 512 1024" width="100%" x="0px" xml:space="preserve" xmlns="http://www.w3.org/2000/svg" xmlns:xlink="http://www.w3.org/1999/xlink" y="0px"><path d=" M110.390778,812.288452   C110.116997,822.603149 109.517288,832.788757 112.604897,842.008301   C116.203613,852.754150 117.495193,862.683411 114.861481,873.966675   C113.103989,881.496094 116.612022,889.677185 118.553223,897.428101   C119.402306,900.818298 120.373207,904.172302 120.316261,907.729553   C120.198570,915.081421 116.730804,919.200378 109.398811,919.150696   C101.068367,919.094360 92.829178,917.549438 84.907898,914.901978   C80.100357,913.295166 78.919823,909.244629 80.019211,904.745850   C81.042603,900.557983 82.492012,896.443420 84.101295,892.436035   C87.280037,884.520691 89.249176,876.621033 86.053413,868.180420   C85.226715,865.996887 85.277809,863.458191 86.035309,861.265747   C88.546883,853.996155 87.333328,846.851379 86.028114,839.583435   C82.429459,819.545044 76.125069,800.214844 70.945656,780.588623   C64.169868,754.913330 66.024300,729.086365 70.074135,703.265381   C71.741173,692.636719 70.811951,682.010864 70.268234,671.370728   C68.812218,642.877625 59.556625,615.901978 54.198940,588.169128   C50.819088,570.674194 47.652821,553.096069 48.007111,535.215454   C48.307156,520.072571 49.941513,505.008850 53.172680,490.142975   C54.047619,486.117584 53.961288,481.878174 54.256458,477.732758   C55.410374,461.526886 62.457405,447.328003 69.433266,433.107452   C74.663261,422.445923 79.821426,411.780396 78.670380,399.368195   C77.929558,391.379639 75.709793,383.692871 74.053261,375.886475   C71.749420,365.029663 68.018822,354.364624 69.180763,342.987152   C69.213867,342.663025 69.257805,342.245605 69.095749,342.009674   C64.579811,335.436371 64.917038,327.425201 62.657707,320.161011   C64.791725,341.426117 60.348194,362.149048 57.769093,383.004089   C56.782883,390.978760 57.244621,398.974701 56.849186,406.956573   C55.890511,426.307373 49.767353,444.511719 45.102955,463.052612   C42.628983,472.886566 39.594864,482.605164 39.062645,492.853241   C38.817978,497.564301 39.740314,501.678925 42.930584,505.342590   C46.771812,509.753876 47.857098,514.897156 46.790218,520.744873   C45.679256,526.834106 46.146832,533.026855 46.673306,539.183594   C46.984451,542.822205 47.517815,546.515686 45.983643,550.031982   C45.301983,551.594360 44.340054,553.082458 42.390099,553.064575   C40.475975,553.046997 39.500652,551.638306 38.777199,550.052856   C37.261337,546.730713 37.692497,543.190125 37.628380,539.707947   C37.576714,536.901855 37.780457,534.034302 35.473263,531.800964   C32.640640,532.307312 32.929298,534.822144 32.647594,536.519348   C31.382929,544.138611 32.425507,551.849548 36.192570,558.295288   C39.734795,564.356323 40.388783,569.288757 35.980606,574.803101   C34.369709,575.164001 33.679260,573.805542 32.943005,572.801086   C28.611177,566.891418 24.278303,560.979614 20.099289,554.961914   C17.817780,551.676575 18.622841,547.428772 17.336222,543.956421   C13.989461,534.924072 16.381929,526.407959 18.053156,517.577271   C20.743370,503.362244 21.811373,488.941406 21.228231,474.447540   C20.298582,451.341217 17.913572,428.225769 21.686089,405.154846   C22.168121,402.207001 22.754366,399.264557 23.502037,396.373901   C25.892160,387.133087 27.476717,377.917145 25.694120,368.283203   C21.588726,346.095917 25.521767,323.759918 24.963955,301.490479   C24.743984,292.708588 27.510201,284.049347 31.043547,275.884979   C34.899269,266.975708 42.022095,261.758209 51.165787,259.336761   C66.556259,255.261093 79.751823,246.697601 93.220657,238.802872   C99.782280,234.956787 102.065971,228.281189 102.898697,220.606461   C103.967384,210.756943 100.275208,202.392563 96.813454,193.792618   C96.571938,193.192627 96.247528,192.525665 95.762939,192.138687   C86.338982,184.613052 85.586769,174.511124 87.387634,163.721817   C87.756096,161.514297 87.549187,159.438873 87.239456,157.296066   C86.048050,149.053772 86.922028,141.015762 89.871346,133.233810   C91.300056,129.464081 93.216125,125.878464 96.175468,123.124939   C101.054535,118.585190 106.137711,113.565880 111.346046,110.254448   C118.429565,105.750801 127.114349,101.651688 136.498886,102.663651   C141.108948,103.160774 143.791763,106.590958 147.277710,109.266136   C153.762299,114.242493 155.591751,121.885292 161.036194,127.378822   C169.502548,135.921494 169.449280,147.568054 167.570984,158.930222   C167.188553,161.243561 166.449951,163.357483 168.213348,165.495071   C169.169998,166.654739 169.428146,168.345810 169.070114,169.810226   C167.089691,177.910065 168.091736,187.404526 158.686996,192.128006   C157.891983,192.527298 157.653961,194.116867 157.245575,195.187210   C156.474518,197.208221 156.181992,199.552704 154.964966,201.239059   C148.610733,210.043655 151.934860,219.177216 154.064133,228.102631   C155.247543,233.063232 158.669678,237.055984 163.241653,239.524628   C176.673859,246.777359 189.275513,255.499969 204.469223,259.456146   C218.864517,263.204407 224.304611,275.245605 227.197906,288.519318   C228.792908,295.836792 229.582748,303.294647 229.335037,310.835785   C229.039749,319.826172 229.277527,328.783417 230.132507,337.771454   C231.305222,350.099670 229.665771,362.392609 228.058426,374.599823   C227.271896,380.573303 227.931503,386.315063 229.634430,391.840790   C236.165207,413.032166 234.978012,434.762207 233.769455,456.326385   C232.993195,470.176819 233.253052,483.824677 234.189865,497.627411   C234.903870,508.147491 237.078522,518.286621 238.984406,528.540466   C239.508575,531.360535 239.361389,534.096985 238.267792,536.870361   C237.175919,539.639343 236.041458,542.570557 235.864227,545.487610   C235.338669,554.137451 230.928284,560.444214 224.770050,565.970886   C222.046417,568.415161 219.606049,571.173096 216.992584,573.743347   C216.173828,574.548584 215.247177,575.455017 213.936462,574.783508   C212.665634,574.132324 212.687317,572.840027 212.862473,571.710083   C213.507721,567.546997 215.066467,563.779358 217.361740,560.186584   C221.233398,554.126160 224.757263,547.866760 223.666794,540.168823   C223.237976,537.141724 222.383957,534.396240 219.793259,531.856323   C217.406860,534.567932 218.128769,537.623901 218.126526,540.424927   C218.123871,543.757324 218.572144,547.124329 216.969299,550.232605   C216.098053,551.922180 214.858185,553.387573 212.707047,553.082214   C210.818008,552.813965 209.873337,551.342834 209.613052,549.598755   C209.270538,547.303772 208.996002,544.975769 208.976807,542.659607   C208.909317,534.510254 209.510422,526.333801 207.284271,518.321655   C206.266815,514.659668 207.351608,511.060577 209.690643,508.461151   C217.033463,500.300629 216.180267,490.944824 213.799377,481.591431   C209.241638,463.686127 204.147675,445.917938 199.393936,428.061523   C197.632309,421.444397 196.622787,414.683807 196.914886,407.797028   C197.660858,390.208191 194.298355,372.988342 192.338821,355.637573   C191.484726,348.075012 191.087967,340.460785 190.455292,332.515625   C186.582336,337.565765 186.137344,342.986389 185.803070,348.822205   C185.133453,360.512299 181.656448,371.763611 178.030167,382.820740   C172.969330,398.251953 173.976089,412.540497 181.891556,427.038818   C189.447906,440.879333 196.811050,455.207611 198.589386,471.195587   C200.522781,488.578003 205.569748,505.425781 206.704590,522.914673   C208.196976,545.913818 204.843246,568.398132 199.907471,590.741394   C195.567139,610.389099 189.709732,629.725586 187.233627,649.755371   C184.659775,670.575806 182.774734,691.317200 187.173889,712.304321   C192.503937,737.732544 190.032837,762.973083 182.492935,787.755066   C176.965668,805.922058 172.200851,824.276794 168.932800,842.998352   C168.704346,844.307068 168.403732,845.617126 168.332687,846.937134   C167.795547,856.917053 170.684067,866.729736 168.404465,876.964294   C166.930939,883.579834 171.719757,890.005432 173.824722,896.465149   C178.621933,911.187073 177.230301,913.801819 162.114471,916.851257   C158.200516,917.640808 154.266922,918.352295 150.320709,918.958984   C140.359879,920.490234 134.892593,915.047913 136.234055,905.087585   C137.430817,896.201660 141.082840,887.772705 140.880356,878.603149   C140.780594,874.085266 140.763824,869.640137 139.340698,865.282227   C137.550735,859.800903 138.005661,854.472473 140.731995,849.332703   C144.208893,842.777771 144.292770,835.514404 144.609055,828.404663   C145.418076,810.217957 144.133820,792.183472 140.895050,774.216125   C138.151291,758.994812 139.273743,743.627930 141.887573,728.476562   C143.575470,718.692505 143.023254,709.014221 140.263336,699.813538   C135.637024,684.390930 136.178223,668.774475 137.201202,653.199219   C138.314163,636.253845 136.731125,619.605225 134.086685,602.986389   C130.726959,581.872375 128.823929,560.738281 131.571075,539.393616   C131.786591,537.718933 131.939087,536.117981 133.459518,534.615295   C131.736145,534.615295 130.316071,534.615356 128.895981,534.615356   C127.417862,534.615356 125.939735,534.615295 123.773758,534.615295   C124.894966,542.876648 125.101685,550.790710 125.422256,558.696655   C126.123299,575.985474 122.531342,592.834412 120.814339,609.871521   C118.922607,628.642334 118.424858,647.420410 119.937988,666.236877   C120.557526,673.941162 120.353935,681.782288 118.104607,689.039673   C112.895447,705.847046 112.776291,722.686768 115.321281,739.848328   C117.493843,754.498535 116.355377,769.075623 113.348991,783.538879   C111.411423,792.860229 111.457848,802.398071 110.390778,812.288452  z" fill="#ff0000" fill-opacity="0.3" id="zone_female_front" opacity="1.000000" stroke="#ff0000" stroke-width="0.5"/><path d=" M483.135498,326.251099   C484.304321,341.878113 483.437927,356.956085 481.481354,372.010803   C480.545410,379.212311 481.749695,386.256866 483.635132,393.238281   C489.479401,414.878113 490.017059,436.920990 488.705536,459.143097   C487.999725,471.101715 488.493469,483.010925 489.628387,495.016724   C490.730408,506.674927 494.581421,517.966431 494.689026,529.435364   C494.767212,537.768982 493.206635,546.853271 487.558136,554.272705   C482.807922,560.512268 476.952026,565.533813 471.437439,571.103638   C467.694641,565.409241 468.025116,562.207458 472.774841,557.678345   C478.992523,551.749573 481.502045,544.540894 480.657104,536.069214   C480.436279,533.855164 479.856506,531.851074 477.585876,530.506409   C475.302368,531.760620 475.413818,533.995056 475.300354,536.075195   C475.155273,538.734741 475.404175,541.447021 474.977753,544.053894   C473.812714,551.175537 470.913055,552.457581 464.739777,548.282166   C464.091827,554.780334 463.556427,561.015442 462.835083,567.229004   C460.217010,589.780090 454.123718,611.615479 449.008453,633.648376   C445.015564,650.846985 442.271881,668.237061 440.406342,685.782532   C439.259216,696.571228 441.924866,707.002686 443.498535,717.491150   C447.655060,745.194214 444.814697,772.218140 437.079254,798.970581   C432.041901,816.391724 426.960236,833.821411 423.847992,851.734253   C423.734009,852.390320 423.481567,853.040466 423.476349,853.694763   C423.327454,872.297241 418.929352,890.831726 422.522858,909.489563   C423.429993,914.199524 421.222839,916.665161 417.006622,918.075867   C400.315552,923.660400 390.707428,915.674255 394.007751,898.260193   C396.009705,887.697144 397.955750,877.408630 394.915314,866.704285   C393.939697,863.269409 394.133362,859.240723 395.915253,855.920898   C400.754303,846.905151 401.105316,836.999817 401.529999,827.243591   C402.262543,810.414612 401.564026,793.617676 397.742432,777.092407   C394.843506,764.557007 395.368042,751.918884 397.139191,739.339783   C399.094025,725.455566 398.562866,711.912109 394.261993,698.434143   C391.348907,689.305115 391.053894,679.742188 392.164398,670.220703   C394.277405,652.104004 393.771545,634.012390 392.294312,615.876892   C390.513214,594.011169 386.447754,572.163391 389.831329,550.171936   C391.066925,542.141418 391.522736,535.002563 385.015381,528.938416   C383.645416,527.661743 383.074738,525.527405 381.917511,523.383972   C379.553528,528.750427 377.214783,533.646118 372.974426,537.767700   C375.462463,538.859253 375.968475,540.970398 376.368896,543.245789   C379.606506,561.642944 378.560394,580.072205 376.903625,598.513550   C374.783752,622.109253 374.150055,645.733887 375.972137,669.374207   C376.670105,678.429932 376.899048,687.641296 373.953735,696.118530   C368.163391,712.784180 369.150543,729.490967 371.498413,746.392395   C373.055328,757.600159 371.861694,768.635376 369.711670,779.647156   C365.460175,801.422058 364.519928,823.491577 368.736664,845.153625   C371.004364,856.803223 374.024506,867.795776 371.345581,879.792969   C369.970001,885.953369 372.676147,892.280884 373.506287,898.537170   C373.833618,901.003906 374.180847,903.490906 374.201721,905.971375   C374.294830,917.023438 372.371216,918.973877 361.304504,919.323120   C360.139954,919.359924 358.967987,919.351868 357.806519,919.267456   C347.312744,918.505432 345.758392,916.670166 345.728943,906.202454   C345.711060,899.841614 346.420898,893.591797 347.381897,887.331543   C347.733002,885.044312 348.319550,882.419495 347.574493,880.400452   C343.746063,870.025696 345.378693,858.995239 343.303925,848.424805   C339.419250,828.633240 333.351074,809.406433 328.284363,789.926270   C320.965057,761.785522 321.262390,733.587830 326.110352,705.248169   C328.601868,690.683289 326.628876,676.378296 324.194275,662.130188   C319.648224,635.524902 310.855927,609.918396 305.255676,583.550110   C303.108459,573.440002 301.910034,563.199646 300.736847,552.950562   C300.549805,551.316162 300.302429,549.688660 300.026245,547.637085   C297.973083,549.394287 296.706055,552.350647 293.769958,550.772705   C290.321228,548.919189 290.034241,545.369873 290.153900,542.042969   C290.255249,539.225769 290.941864,536.437195 290.079254,533.629761   C289.741455,532.530334 289.647247,531.294678 288.324036,530.816040   C284.984406,533.576172 282.223541,542.809937 284.116608,546.497375   C286.303833,550.757812 288.055756,555.362915 291.644684,558.770691   C295.412201,562.348022 296.346222,566.233215 293.020081,570.940857   C289.609131,570.536438 288.178070,567.319885 285.846863,565.425781   C275.979980,557.409302 271.670990,546.126709 269.459320,534.301208   C268.513123,529.242004 270.644592,523.500977 271.825287,518.168884   C276.690430,496.197357 276.593964,473.959106 275.568085,451.680054   C274.682526,432.448700 275.985748,413.376526 280.723053,394.745605   C283.603180,383.418518 282.946930,372.277466 281.489655,361.049530   C280.237000,351.397949 280.171478,341.698914 280.928314,332.118195   C281.744873,321.780853 281.377106,311.481903 281.608429,301.169800   C281.816742,291.884338 283.965454,283.004181 287.277161,274.447662   C291.131683,264.488770 299.218872,259.703674 309.328796,257.764832   C325.075378,254.745010 338.412354,246.513214 351.473663,237.859482   C355.912903,234.918259 357.818512,230.141479 359.095215,224.848160   C361.755096,213.820572 358.806274,203.318970 353.163940,194.918625   C348.936249,188.624359 346.230560,182.422623 344.476959,175.449219   C343.561401,171.808441 342.389923,168.014099 345.908722,164.756409   C347.137482,163.618820 345.892334,161.897171 345.748871,160.449524   C344.587708,148.729828 345.199402,137.227997 349.526550,126.094772   C351.464050,121.109879 354.424133,117.083153 358.955902,114.166962   C360.469025,113.193237 361.836212,111.909309 363.043152,110.563614   C364.648407,108.773842 366.496185,106.859673 368.737488,106.728920   C380.142365,106.063576 391.141815,102.941940 402.431366,110.830116   C418.536407,122.082947 422.802399,137.162476 422.050995,155.052963   C421.849762,159.844299 421.861664,164.547699 422.041748,169.344177   C422.409332,179.132584 420.377472,188.413742 412.896576,196.103821   C409.630737,199.460983 407.795532,204.696808 406.514709,209.406891   C402.631622,223.686783 408.338959,236.430191 421.160980,243.777023   C432.484924,250.265488 444.133362,255.673630 457.159882,258.129944   C466.865875,259.960175 473.266357,266.593414 476.762970,275.723083   C481.582886,288.307800 484.021606,301.300293 482.496521,314.848450   C482.083069,318.521179 482.441956,322.165100 483.135498,326.251099  M446.586914,326.726990   C446.473602,326.456879 446.862976,325.511902 445.987183,326.274200   C445.872864,326.373688 445.821899,326.564148 445.777039,326.722534   C444.961670,329.601898 444.212860,332.501709 443.327698,335.359314   C441.556366,341.077759 439.643494,346.752991 437.925995,352.487122   C437.128601,355.149353 433.497528,356.725311 433.759155,358.920074   C434.605438,366.019531 431.686737,372.283966 430.450897,378.899811   C428.956451,386.900055 427.126953,394.813110 427.798065,403.086121   C428.710297,414.331970 432.940979,424.331268 438.469910,433.955353   C446.097443,447.232513 454.620148,460.282990 456.712738,475.802155   C458.356445,487.992218 462.245087,499.688995 463.403412,512.595337   C464.690277,510.260040 465.299591,508.221405 466.625977,506.905518   C473.072876,500.509796 472.960449,492.773193 470.792603,485.021637   C467.343842,472.689545 463.094391,460.583435 459.511810,448.286133   C455.749634,435.372406 450.891235,422.643860 450.783020,408.944153   C450.653839,392.586670 448.776703,376.451141 446.084930,360.327087   C444.258911,349.388977 442.628082,338.237152 446.586914,326.726990  M312.367676,422.594604   C310.787689,432.662842 307.307739,442.210632 304.434418,451.932007   C300.667908,464.675323 294.875427,476.791809 292.773315,490.052246   C291.864594,495.784607 292.489319,500.960938 296.763397,505.314270   C299.031860,507.624756 300.268127,510.498535 300.695190,513.783813   C301.539917,501.474518 305.697449,489.815308 307.296814,477.701385   C308.225220,470.669281 310.219696,464.038330 313.332611,457.755768   C318.651337,447.021423 324.055725,436.325165 329.663940,425.739960   C335.375122,414.960327 337.362091,403.750763 336.007843,391.546326   C334.766083,380.355865 329.267273,369.939941 330.323364,358.388428   C330.363190,357.952759 329.525757,357.409698 329.056335,356.959198   C326.313751,354.327240 325.034149,350.881226 323.838013,347.421509   C322.408142,343.285675 321.121155,339.100433 319.772308,334.936554   C321.535828,342.032623 319.360687,348.908844 318.779999,355.792389   C317.455048,371.498566 313.338715,386.892609 313.961761,402.852783   C314.206146,409.112762 313.019318,415.428650 312.367676,422.594604  M300.226959,520.176636   C299.199707,525.272949 298.957184,530.401917 299.651733,535.570129   C299.002197,530.243225 301.359467,525.046143 300.226959,520.176636  M465.911560,534.156311   C466.282867,529.502686 465.682587,524.963684 464.022583,519.144897   C464.493469,525.476318 464.839844,530.425232 465.262634,535.367676   C465.304962,535.862610 465.709778,535.801697 465.795685,535.242737   C465.820862,535.078979 465.841980,534.914551 465.911560,534.156311  z" fill="#ff0000" fill-opacity="0.3" id="zone_female_back" opacity="1.000000" stroke="#ff0000" stroke-width="0.5"/><text fill="#000000" font-size="16" text-anchor="middle" x="100" y="50">Vue avant</text><text fill="#000000" font-size="16" text-anchor="middle" x="400" y="50">Vue arrière</text></svg>