<?xml version="1.0" encoding="utf-8"?>
<svg id="Layer_1" version="1.1" viewBox="0 0 512 1024" width="100%" x="0px" xml:space="preserve" xmlns="http://www.w3.org/2000/svg" xmlns:xlink="http://www.w3.org/1999/xlink" y="0px">
<path d=" M221.098419,581.719055   C218.542282,606.959351 211.976898,630.783630 205.561981,654.782776   C201.024200,671.759338 201.065323,690.033936 206.383423,707.163635   C211.929123,725.026550 211.518845,742.763306 209.933701,760.994385   C207.888290,784.518982 200.951782,807.015076 196.870422,830.095093   C195.405518,838.379272 194.672562,846.613281 196.493027,854.874512   C197.309128,858.577942 197.322754,862.220337 196.166885,865.715820   C194.653839,870.291565 195.777649,874.215820 198.216568,878.023132   C201.810165,883.633057 205.442139,889.218872 208.984985,894.860657   C210.575165,897.392822 212.223328,899.931335 213.434357,902.649963   C215.923553,908.237976 214.544678,909.497925 209.417343,912.636292   C203.252228,916.409912 196.314850,916.456604 189.832703,918.491272   C184.189041,920.262695 177.514389,915.458435 175.933746,909.156616   C175.369217,906.905823 175.047333,904.566895 174.881775,902.249146   C174.534500,897.387695 175.106979,892.643311 170.861816,888.522827   C167.852066,885.601379 169.007401,880.958496 170.397125,877.099609   C171.630783,873.674011 171.948196,870.462280 170.350327,866.975830   C168.848160,863.698120 168.858597,859.878418 170.054688,856.664001   C175.714371,841.453491 173.583557,826.199646 171.253906,810.800171   C169.113327,796.650635 166.587799,782.645386 163.229126,768.692444   C159.016876,751.193542 161.875885,733.545410 166.376678,716.363220   C168.964920,706.482483 168.659409,696.999451 165.512741,687.424133   C160.685898,672.736023 158.687866,657.607971 158.677826,642.187805   C158.668228,627.443359 155.115387,613.145630 153.213989,598.639832   C152.295197,591.630432 151.349472,584.624512 149.723740,577.625488   C147.916306,590.715759 146.260101,603.829285 144.257812,616.889648   C142.354202,629.306519 143.698441,641.842224 142.438568,654.292847   C141.480118,663.764404 140.737564,673.310303 137.626999,682.277100   C133.443527,694.336670 134.068054,705.917480 137.673294,717.977539   C143.753616,738.317322 144.303741,758.717041 138.236237,779.468689   C133.232513,796.582031 132.167389,814.517395 130.431366,832.232605   C129.740768,839.279785 131.393753,846.156311 133.544861,852.843750   C135.272522,858.214783 136.192932,863.515808 133.738968,868.906555   C132.437729,871.765015 133.584915,874.473877 134.358368,877.174500   C135.892700,882.531982 136.604858,887.677673 131.544495,891.774231   C130.060379,892.975647 130.286713,894.788696 130.314163,896.432007   C130.384033,900.615112 130.056274,904.767151 129.226700,908.854858   C127.674507,916.503296 120.132950,920.420349 112.806084,918.106445   C107.081757,916.298645 101.136833,915.230835 95.630638,912.663940   C89.604988,909.854919 88.357788,907.617676 91.651649,901.790466   C95.903336,894.268799 100.830811,887.118530 105.657112,879.935913   C108.995644,874.967407 110.670128,869.930176 108.442543,863.990295   C107.824951,862.343506 107.626038,860.297729 107.957733,858.574097   C111.481133,840.265015 107.023361,822.775818 102.141266,805.482544   C96.314873,784.844177 93.993065,763.699585 91.834854,742.520081   C90.657829,730.969360 92.466667,719.577148 95.925850,708.511902   C98.711296,699.601929 98.039406,690.509399 98.465523,681.373779   C99.309196,663.286377 91.752419,647.644226 86.260933,631.340515   C79.835518,612.264038 76.618744,592.634033 75.588905,572.582886   C75.362221,568.169250 74.756584,563.775085 74.322960,559.346497   C67.019684,560.657349 66.186653,559.880188 64.438202,552.893127   C63.691319,549.908569 64.593399,546.495972 62.356251,543.869934   C60.013748,543.899719 59.616673,545.555115 59.235485,547.199890   C56.740696,557.964905 59.112148,563.603149 68.664566,569.708374   C71.207474,571.333618 72.368942,573.717651 71.302605,576.547119   C70.210564,579.444763 67.991486,577.621094 66.194008,577.247864   C55.665344,575.062134 50.997974,566.716431 46.829445,558.215637   C41.571457,547.493042 43.018078,536.173279 45.070580,524.961121   C46.013325,519.811218 46.161999,514.658203 45.198635,509.565247   C44.334248,504.995483 45.703686,500.616058 45.697384,496.131653   C45.675583,480.615662 43.475311,465.252075 42.598789,449.797150   C41.352058,427.814728 41.096817,405.910492 47.026073,384.414429   C49.442486,375.653931 50.527313,366.777283 48.606007,357.776245   C47.059132,350.529327 48.234535,343.496185 50.180992,336.581696   C52.284363,329.109802 52.136654,321.847137 49.653126,314.506287   C43.176186,295.361603 48.180180,277.666351 57.151764,260.743225   C61.323895,252.873322 69.249054,249.325089 77.362747,247.098907   C92.282280,243.005371 104.668304,234.160278 117.720749,226.548187   C122.578247,223.715347 124.846535,219.168335 124.641747,213.544113   C124.321274,204.742950 125.740349,195.886475 123.778877,187.134094   C123.447159,185.653946 123.329735,184.037613 121.916367,183.202164   C114.788109,178.988525 114.909157,171.648087 114.043015,164.811737   C113.848610,163.277344 114.193466,160.824051 115.208107,160.123611   C122.383354,155.170288 119.478729,147.785950 117.860466,142.592972   C114.519844,131.872940 119.138618,123.749069 124.450867,116.194656   C129.354416,109.221458 138.104691,107.769279 146.239685,106.754852   C150.988281,106.162720 155.826950,106.951683 160.653656,105.954788   C164.639404,105.131577 168.192780,107.076065 171.069397,109.792488   C173.767532,112.340347 176.685608,114.434662 180.041946,116.030167   C184.158417,117.987022 185.987625,121.265274 184.841385,125.842934   C184.118607,128.729446 184.286499,131.366806 185.951752,133.969986   C187.558273,136.481354 187.465820,139.285324 186.908981,142.183304   C186.063156,146.585175 185.462509,151.035278 184.817886,155.473618   C184.704651,156.253235 184.620239,157.625061 184.971725,157.795166   C189.617737,160.043564 188.503738,164.192551 188.188339,167.844193   C187.785736,172.505630 187.210983,177.702789 183.587830,180.751129   C177.803253,185.618027 177.648956,192.300751 176.405380,198.609055   C175.511536,203.143250 175.783859,207.898560 175.396545,212.543610   C174.925903,218.187744 176.731216,222.938263 181.525101,225.895874   C194.519592,233.912918 206.760498,243.370850 221.892151,247.419907   C238.663788,251.907791 245.105728,264.388702 247.290710,280.259949   C248.945053,292.276550 248.829941,304.138611 245.529037,315.903229   C243.051483,324.733368 245.937057,333.407959 246.735977,342.115967   C247.210617,347.289398 247.702682,352.473389 246.965927,357.560608   C245.214645,369.652863 246.294922,381.487549 249.458893,393.168091   C251.170654,399.487427 251.566284,405.907013 252.184799,412.375366   C254.358032,435.102539 251.432983,457.576691 249.481750,480.109985   C249.453003,480.441956 249.400772,480.776276 249.415558,481.106995   C250.290512,500.675781 248.193222,520.359253 251.583221,539.821228   C252.098343,542.778503 251.718323,545.424255 250.688019,548.103271   C249.671982,550.745117 248.182800,553.299561 247.697159,556.033752   C246.038879,565.369446 239.772125,571.114746 232.607468,576.211304   C230.412064,577.773010 228.009613,580.386597 225.246155,577.324036   C223.405350,575.283936 225.088242,570.201965 228.381531,568.925720   C232.060791,567.499878 234.041977,564.746155 235.427933,561.591614   C238.055817,555.610229 235.876648,549.904968 234.232407,543.470398   C228.808411,548.885986 234.441589,560.422119 222.584824,560.465393   C221.429565,567.331665 221.395203,574.301758 221.098419,581.719055  M73.044067,545.683899   C73.341957,546.533203 72.764114,547.722351 74.626862,548.485718   C74.570808,535.329224 78.283447,522.768433 77.725777,509.784393   C77.141563,496.182037 79.045677,482.859985 83.311249,469.984375   C87.381050,457.699677 90.056458,445.329895 88.902031,432.304749   C88.396233,426.597900 89.369598,420.981506 91.120117,415.586029   C94.413475,405.435150 95.570229,395.213104 93.712440,384.613953   C91.824318,373.841705 87.591087,363.780914 85.257523,351.975861   C82.504799,356.026886 82.328705,359.356873 82.395523,362.549042   C82.641151,374.283478 81.350250,385.786011 77.909241,397.023621   C77.209763,399.307953 77.262924,401.604187 77.588951,403.938293   C79.815964,419.881653 79.536415,435.865143 76.624802,451.617279   C73.968964,465.985718 70.217613,480.157471 66.756378,494.368958   C64.848618,502.202026 65.360268,509.448639 70.162155,516.219055   C72.098671,518.949402 72.646500,522.299683 73.463402,525.546631   C75.112343,532.100586 72.820007,538.453918 73.044067,545.683899  M221.863480,467.490417   C216.137512,447.595581 214.394073,427.351990 216.617340,406.774933   C217.159180,401.759949 217.090393,396.850861 215.606354,391.952271   C213.866165,386.208160 212.928955,380.300171 212.602814,374.288910   C212.284195,368.415985 211.804321,362.551849 211.395233,356.683838   C208.528519,362.112549 206.503479,367.529419 204.854156,373.058380   C200.658875,387.122131 198.041428,401.199585 204.374283,415.465363   C206.416855,420.066559 206.903778,425.210480 206.545410,430.173859   C205.816299,440.272095 206.959656,449.951172 210.035004,459.659729   C215.432663,476.699585 217.844650,494.304260 218.470032,512.178467   C218.643433,517.134705 219.237045,522.134766 220.944672,527.844910   C222.056030,522.342285 223.410034,517.920105 225.919403,513.907104   C228.195145,510.267548 229.023941,506.244690 228.721939,501.959351   C227.910950,490.451294 225.510651,479.258667 221.863480,467.490417  M152.475098,303.193451   C151.139954,287.688171 149.894241,272.178589 150.230804,256.592712   C150.253220,255.555008 150.937180,254.207794 148.768219,253.935135   C150.103867,269.217712 146.690247,284.201263 147.020569,299.639832   C148.110107,299.595703 148.571899,297.802368 149.541382,298.248444   C151.518509,299.757507 150.322266,302.589417 152.475098,303.193451  M141.697647,249.181900   C144.168915,247.995850 142.425232,246.211884 141.525879,246.158997   C138.049622,245.954559 134.411743,244.160828 130.366394,246.623535   C134.385895,247.534546 137.752884,248.297653 141.697647,249.181900  z" fill="#ff0000" fill-opacity="0.3" id="zone_male_front" opacity="1.000000" stroke="#ff0000" stroke-width="0.5"/>
<path d=" M443.611450,251.242325   C454.081085,254.308075 460.409668,260.767456 463.437317,270.950470   C468.016083,286.350250 470.511444,301.806244 466.159515,317.632935   C464.194641,324.778625 466.525543,331.512787 467.569916,338.335876   C468.336334,343.342834 468.821411,348.381348 468.049927,353.252289   C465.877258,366.970459 467.921997,380.305267 472.159393,393.125214   C476.881256,407.410858 475.718414,421.746613 474.688049,436.144623   C472.991455,459.851593 468.526642,483.273712 468.941589,507.252014   C469.131653,518.234436 470.803436,529.137512 470.392883,540.020020   C469.785522,556.119202 463.551086,571.342834 447.914368,576.459351   C446.197998,577.020935 443.949066,578.898682 442.850861,576.025452   C441.853180,573.415039 443.194427,571.153503 445.559082,569.671570   C454.653992,563.972046 457.169678,558.823242 455.428040,548.844666   C454.993500,546.355042 454.704376,543.478333 451.051605,542.650391   C449.819916,546.260010 449.738159,549.883423 449.261688,553.441345   C448.539581,558.833496 446.042206,560.586731 440.456909,559.406860   C440.129059,565.199341 439.821167,570.940979 439.476349,576.680359   C437.960846,601.903503 433.100769,626.493530 425.188416,650.465515   C422.562531,658.421082 423.192078,666.640503 422.703583,674.733826   C421.882141,688.344299 421.372437,701.970520 425.361176,715.378845   C428.533356,726.042297 428.432068,737.071045 427.252991,748.074890   C425.162231,767.587830 423.416565,787.152893 419.317017,806.386597   C416.993378,817.288513 413.758179,827.979736 411.966583,839.015442   C411.101776,844.342468 411.050049,849.640076 411.420563,854.949707   C411.641296,858.112915 411.918030,861.217896 411.368744,864.375854   C410.519867,869.256042 412.893677,873.089783 415.694183,876.713013   C418.136627,879.872803 420.999603,882.762878 423.065521,886.145447   C426.073425,891.070251 424.210968,894.750061 418.538605,895.105835   C414.548248,895.356018 411.671051,897.472778 408.679626,899.519531   C403.626648,902.976929 398.222473,903.582886 392.475983,901.881836   C387.945190,900.540710 385.392029,897.642761 385.705872,892.709900   C386.043701,887.399902 386.483154,882.096008 386.785522,876.784180   C387.022552,872.619995 386.950775,868.486633 385.809631,864.393250   C384.945099,861.292236 384.849609,857.929504 386.216888,855.053284   C391.438782,844.068787 390.007568,832.487000 389.128723,821.123596   C387.858643,804.701416 384.577423,788.585510 381.100830,772.442749   C377.158051,754.135071 379.634949,735.570007 384.252411,717.549255   C386.900726,707.213440 387.172150,697.414124 384.014160,687.134399   C380.239105,674.846008 378.742950,662.122314 378.695526,649.187683   C378.618439,628.153564 374.578613,607.570007 371.136047,585.941833   C369.109100,588.288391 369.431519,590.264771 369.187103,592.060608   C368.940247,593.874390 368.690582,595.687866 368.423492,597.498779   C365.261414,618.937988 364.141541,640.531616 363.253693,662.159241   C362.802429,673.151672 360.391022,683.917297 358.000336,694.639282   C356.516785,701.292847 356.822571,707.795898 358.667206,714.370911   C364.014313,733.430176 367.770966,752.788086 363.145355,772.476135   C357.813568,795.169922 355.236298,818.025940 356.268341,841.300415   C356.327362,842.631836 355.919098,844.164551 356.439911,845.267578   C363.724426,860.694519 355.336975,877.204712 359.790436,892.865479   C360.793488,896.392700 358.296234,899.239502 354.987854,900.802063   C348.368561,903.928528 342.024384,903.245300 336.119202,898.993225   C333.241150,896.920959 330.367188,895.368835 326.631439,895.056580   C320.357758,894.532349 318.525177,890.534973 322.158356,885.358948   C325.114899,881.146912 328.635345,877.329163 331.926819,873.354004   C334.405609,870.360291 334.854095,867.029785 334.809662,863.135559   C334.667297,850.653381 334.984497,838.191711 331.648712,825.972900   C327.614868,811.197021 323.996246,796.324463 322.168762,781.074402   C320.388184,766.215393 317.733215,751.455139 317.645508,736.413269   C317.596619,728.031067 318.412842,719.769409 320.555267,711.697388   C323.473236,700.703369 322.316437,689.606628 322.345428,678.462646   C322.385315,663.125000 317.887848,649.010071 313.367188,634.695435   C307.409637,615.830933 305.753845,596.230164 304.770966,576.572021   C303.721558,555.583923 305.556976,534.708557 306.421478,513.771301   C307.184296,495.298584 309.662964,477.400146 314.159241,459.628815   C315.221985,455.428436 314.306976,451.367645 313.753967,447.253479   C312.438416,437.465424 314.557892,427.997833 316.892670,418.645508   C319.460571,408.359375 319.289459,398.290009 316.620056,388.070038   C313.730316,377.006348 313.558411,365.264404 308.344208,354.775055   C307.493103,353.062866 307.380829,350.965881 306.177032,349.907715   C308.507690,364.459076 308.448120,379.323853 304.968201,393.870056   C302.747864,403.151245 302.559387,412.039246 303.758606,421.442596   C305.954834,438.664154 303.404877,455.598846 298.707428,472.281677   C296.095398,481.558258 293.760223,490.942749 293.223358,500.653412   C292.996033,504.765411 293.787384,508.630981 295.795563,512.197693   C300.107086,519.855347 301.757874,527.907959 300.474152,536.705994   C299.830017,541.120361 299.957245,545.687561 300.895508,550.143494   C301.032196,550.792664 301.155609,551.465698 301.135773,552.123169   C301.051880,554.907104 301.601013,558.535583 297.883362,558.980530   C293.888123,559.458618 293.379059,555.668701 292.840942,552.792725   C292.275482,549.770325 293.073547,546.437683 290.686584,543.835022   C284.978149,547.592957 284.037720,557.236816 288.775177,563.698914   C290.529633,566.092041 292.419159,568.385986 295.668915,569.129944   C298.040710,569.672913 299.804718,571.318665 300.388367,573.827942   C300.842651,575.780945 300.517151,578.130432 298.371246,578.217285   C294.860352,578.359497 290.941742,579.842346 287.800507,577.205933   C276.508545,567.728699 270.153137,555.288269 271.567535,540.814514   C274.318878,512.659302 273.395752,484.720184 270.217621,456.734375   C269.635742,451.610718 269.273407,446.451538 269.065704,441.298431   C268.743835,433.312805 268.610138,425.333923 267.824341,417.357422   C267.004944,409.040314 267.798279,400.822449 270.118011,392.651947   C273.347961,381.275513 275.395599,369.760040 273.942871,357.696533   C272.809784,348.287476 273.361298,338.713806 275.020874,329.321045   C275.850616,324.624939 275.768616,320.058228 274.619415,315.465027   C270.511749,299.046997 273.135132,283.058014 277.884216,267.258270   C280.255280,259.370178 285.486542,253.784225 293.436615,251.652145   C309.115295,247.447388 321.454773,237.241409 335.064087,229.306366   C346.120239,222.859955 345.316895,212.407928 344.306091,201.932816   C343.987030,198.626648 343.292603,195.354813 342.717926,192.076401   C342.550385,191.120468 342.480377,189.629425 341.895935,189.343353   C334.702576,185.822403 335.428986,178.571457 334.080353,172.488464   C333.139374,168.244171 331.862793,163.609909 335.328674,159.575790   C335.781189,159.049088 335.866119,157.921783 335.684662,157.179413   C333.932922,150.014374 334.121613,143.031616 337.103210,136.170166   C337.518707,135.213974 337.191589,133.882721 337.049255,132.744965   C336.113251,125.260536 337.620911,122.198524 344.942444,120.054260   C351.675720,118.082283 358.095093,115.444168 364.629456,112.994301   C372.199097,110.156288 379.712036,110.747131 385.932983,116.966400   C387.086487,118.119606 388.580322,118.982018 390.023590,119.787880   C401.651794,126.280510 405.837677,136.065933 402.866547,148.894669   C401.976227,152.738983 399.375061,157.305099 404.964050,160.232971   C405.621979,160.577637 406.085785,162.045227 406.003418,162.933304   C405.252441,171.031815 406.443054,179.789307 398.639130,185.630508   C398.046082,186.074402 397.574585,186.943542 397.433167,187.688431   C395.408020,198.353821 394.190063,209.075302 395.368134,219.952362   C395.704102,223.054214 397.505310,225.343430 399.913727,226.814468   C414.051514,235.449707 426.784576,246.616058 443.611450,251.242325  M437.279358,524.496460   C438.597534,532.692627 438.106964,541.119812 440.082703,550.158936   C442.252167,545.748657 441.845306,542.107178 441.307159,538.494202   C439.940552,529.318054 440.488464,520.571106 446.343933,512.789246   C448.538757,509.872284 448.898438,506.389954 448.855804,502.808929   C448.699646,489.693024 445.091827,477.186340 442.206665,464.553009   C438.969666,450.378784 436.881012,436.137329 438.599945,421.528046   C439.627075,412.798462 441.199371,404.031067 438.605011,395.272980   C436.133240,386.928680 435.205383,378.352692 434.621338,369.695892   C434.200531,363.459076 433.285614,357.255615 432.591095,351.037262   C430.046082,358.677307 426.898651,365.872864 425.729462,373.655304   C423.708893,387.104889 420.586914,400.416534 424.388824,414.138977   C427.726410,426.185608 429.873840,438.449554 428.322784,451.091736   C427.961517,454.036346 428.438782,457.029358 428.929230,460.017578   C431.106842,473.285614 435.555084,486.217377 435.468262,499.805847   C435.417084,507.816284 435.502960,515.752991 437.279358,524.496460  M368.622314,543.599854   C368.304077,545.971619 369.294342,548.013367 370.370178,550.047729   C370.471710,547.655457 374.533813,544.567078 368.622314,543.599854  z" fill="#ff0000" fill-opacity="0.3" id="zone_male_back" opacity="1.000000" stroke="#ff0000" stroke-width="0.5"/>
<text fill="#000000" font-size="16" text-anchor="middle" x="100" y="50">Vue avant</text><text fill="#000000" font-size="16" text-anchor="middle" x="400" y="50">Vue arrière</text></svg>