<svg xmlns="http://www.w3.org/2000/svg" width="512" height="512" viewBox="0 0 512 512" fill="none">
  <!-- nuno · care planning — square app icon -->
  <g transform="translate(-244,-50.667) scale(1.66667)">
    <rect x="156" y="40" width="288" height="288" rx="66" fill="#5B9BD5"/>

    <rect x="240" y="88" width="20" height="44" rx="10" fill="#FFFFFF"/>
    <rect x="340" y="88" width="20" height="44" rx="10" fill="#FFFFFF"/>

    <rect x="196" y="112" width="208" height="180" rx="24" fill="#FFFFFF"/>

    <g fill="#5B9BD5">
      <circle cx="230" cy="140" r="5"/>
      <circle cx="262" cy="140" r="5"/>
      <circle cx="294" cy="140" r="5"/>
      <circle cx="326" cy="140" r="5"/>
      <circle cx="358" cy="140" r="5"/>
    </g>
    <line x1="214" y1="158" x2="386" y2="158" stroke="#5B9BD5" stroke-width="6" stroke-linecap="round"/>

    <path transform="translate(238,168) scale(3.9)"
          d="M23.6,0 C20.2,0 17.3,2.7 16,5.6 C14.7,2.7 11.8,0 8.4,0 C3.8,0 0,3.8 0,8.4 C0,17.8 9.5,20.3 16,29.6 C22.5,20.3 32,17.5 32,8.4 C32,3.8 28.2,0 23.6,0 Z"
          fill="#E8912D"/>
  </g>
</svg>
